<?xml version="1.0" encoding="utf-8"?>
<!-- Generator: Adobe Illustrator 21.0.0, SVG Export Plug-In . SVG Version: 6.00 Build 0)  -->
<svg version="1.1" id="图层_1" xmlns="http://www.w3.org/2000/svg" xmlns:xlink="http://www.w3.org/1999/xlink" x="0px" y="0px"
	 viewBox="0 0 1125 750" style="enable-background:new 0 0 1125 750;" xml:space="preserve">
<style type="text/css">
	.st0{fill:#126337;stroke:#151216;stroke-miterlimit:10;}
	.st1{fill:#E37B20;stroke:#151216;stroke-miterlimit:10;}
	.st2{fill:#46AB78;stroke:#151216;stroke-miterlimit:10;}
	.st3{fill:#DB667A;stroke:#151216;stroke-miterlimit:10;}
	.st4{fill:#DB667A;}
	.st5{fill:#151216;}
	.st6{fill:#DB667A;stroke:#151216;stroke-linecap:round;stroke-miterlimit:10;}
	.st7{fill:#EFF2D7;stroke:#151216;stroke-miterlimit:10;}
</style>
<g>
	<rect x="213.6" y="260.1" class="st0" width="454.6" height="15.5"/>
	<rect x="209.9" y="496.1" class="st0" width="457.1" height="15.5"/>
	<rect x="433.2" y="40.5" class="st0" width="15.5" height="655.9"/>
	<path class="st0" d="M676,706.7H205.8V267.9c0-31.7,6.2-62.5,18.5-91.5c11.8-28,28.8-53.1,50.4-74.7c21.6-21.6,46.7-38.5,74.7-50.4
		c29-12.3,59.8-18.5,91.5-18.5s62.5,6.2,91.5,18.5c28,11.8,53.1,28.8,74.7,50.4c21.6,21.6,38.5,46.7,50.4,74.7
		c12.3,29,18.5,59.8,18.5,91.5V706.7z M221.4,691.1h439.1V267.9c0-121.1-98.5-219.6-219.6-219.6s-219.6,98.5-219.6,219.6V691.1z"/>
	<g>
		<path class="st1" d="M411.5,691.1h-24.3c-7.5,0-13.5-6-13.5-13.5v-11.2H425v11.2C425,685,418.9,691.1,411.5,691.1z"/>
		<rect x="371.7" y="659.2" class="st1" width="55.3" height="7.4"/>
		<g>
			<g>
				<path class="st2" d="M412.5,651.7c-1.7,8.9-7.8,7.5-7.8,7.5s-6.7-1.1-4.9-10s7.1-23.1,11.2-22.3S414.2,642.8,412.5,651.7z"/>
				<path class="st2" d="M399.4,648.4c5.9,6.9,0.9,10.8,0.9,10.8s-5,4.5-10.8-2.4c-5.9-6.9-13.6-20-10.4-22.7
					C382.4,631.4,393.6,641.5,399.4,648.4z"/>
				<path class="st2" d="M418,656.4c-4.2,6-8.5,4.2-10.8,2.5c-2.4-1.7-4.6-3-0.3-9s9.6-3.6,15.7-12.7
					C426.3,640.6,422.3,650.4,418,656.4z"/>
				<path class="st2" d="M389.9,661.5c6.8,2.7,9.4-1.1,10.5-3.8s2.2-5-4.6-7.7c-6.8-2.7-10,2.2-20.1-2.1
					C374.4,652.8,383.1,658.8,389.9,661.5z"/>
				<path class="st2" d="M411.1,653.8c-1.9,4.7-5,4.2-6.8,3.4c-1.9-0.7-3.5-1.3-1.7-5.9s5.9-4,8.4-11
					C414,641.9,412.9,649.1,411.1,653.8z"/>
				<path class="st2" d="M407.1,649.3c3,8.5-2.9,10.4-2.9,10.4s-6.3,2.5-9.3-6.1c-3-8.5-3.3-23.8-1.7-24.9
					C394.8,627.8,404.1,640.8,407.1,649.3z"/>
				<path class="st2" d="M396.7,655.8c5.4-4.4,8.3-0.6,8.3-0.6s3.4,3.9-2,8.3s-16.7,9.5-17.6,7.7
					C384.5,669.5,391.3,660.2,396.7,655.8z"/>
				<path class="st2" d="M403.6,662.6c-4.7-5.2-1-8.3-1-8.3s3.7-3.6,8.4,1.5c4.7,5.2,10.3,16.2,8.6,17.2
					C417.9,674,408.3,667.7,403.6,662.6z"/>
			</g>
		</g>
	</g>
	<path class="st3" d="M440.9,44.3c25.1,166.6-95.6,350.3-113,383.8c0,0,65.8,100.6,57.1,269.5c0,0-7.5,37.3-172.7-1.2l3.7-654.6
		C216.1,41.8,428.8,20.2,440.9,44.3z"/>
	<g>
		<path class="st4" d="M378.5,162.5c0,0-26.1,144.4-57.8,191.9"/>
		<path class="st5" d="M378.5,162.5c-1.3,8.3-2.8,16.5-4.4,24.8c-1.6,8.2-3.3,16.5-5,24.7c-1.7,8.2-3.7,16.4-5.6,24.5
			c-2,8.2-4,16.3-6.2,24.4c-2.2,8.1-4.5,16.2-7,24.2c-2.5,8-5,16-7.9,23.9c-2.9,7.9-5.9,15.7-9.4,23.4c-3.6,7.6-7.4,15.1-12.2,22
			c4.4-7.1,8-14.7,11.3-22.4c3.3-7.7,6.2-15.6,8.9-23.5c5.4-15.8,10.2-31.9,14.5-48.1c4.5-16.2,8.4-32.4,12.2-48.8
			c1.9-8.2,3.8-16.3,5.6-24.5C375,178.9,376.7,170.7,378.5,162.5z"/>
	</g>
	<g>
		<path class="st4" d="M285.3,102.8c0,0,7.5,91.3-2.8,146.3"/>
		<path class="st5" d="M285.3,102.8c1.3,12.2,2.2,24.4,2.8,36.6c0.6,12.2,0.9,24.4,0.8,36.7c-0.1,12.2-0.4,24.5-1.4,36.7
			c-1,12.2-2.4,24.4-5,36.3c0.4-3,0.8-6.1,1.2-9.1c0.2-1.5,0.4-3,0.5-4.6l0.4-4.6c0.1-1.5,0.3-3,0.4-4.6l0.3-4.6
			c0.2-3,0.5-6.1,0.6-9.1l0.4-9.1l0.3-9.1c0.1-3,0.1-6.1,0.2-9.1c0-3.1,0.1-6.1,0.1-9.2l0-9.2l-0.1-9.2c-0.1-6.1-0.2-12.2-0.3-18.3
			c-0.1-3.1-0.2-6.1-0.2-9.2c-0.1-3.1-0.2-6.1-0.3-9.2C285.9,115,285.6,108.9,285.3,102.8z"/>
	</g>
	<path class="st6" d="M303,459.6c0,0,50.3,63.3,39.1,252.5"/>
	<g>
		<path class="st4" d="M263,564c0,0-6.5,115.5,2.8,141.6"/>
		<path class="st5" d="M263,564c-0.5,11.8-1,23.7-1.2,35.5c-0.3,11.8-0.5,23.7-0.5,35.5c0,11.8,0.2,23.7,0.8,35.5
			c0.3,5.9,0.7,11.8,1.3,17.7c0.7,5.8,1.5,11.7,3.3,17.2l0,0.1c0.2,0.5-0.1,1.1-0.6,1.3c-0.5,0.2-1.1-0.1-1.3-0.6c0,0,0,0,0,0
			c-1.9-5.8-2.6-11.8-3.2-17.7c-0.6-5.9-0.9-11.8-1.1-17.8c-0.4-11.8-0.4-23.7-0.3-35.5c0.2-11.8,0.5-23.7,1-35.5
			C261.7,587.6,262.3,575.8,263,564z"/>
	</g>
	<ellipse class="st1" cx="272.3" cy="427.3" rx="58.7" ry="7.5"/>
	<g>
		<path class="st7" d="M495.7,690.6h-32.9c-7.5,0-13.5-6-13.5-13.5V660h59.9v17.2C509.2,684.6,503.1,690.6,495.7,690.6z"/>
		<ellipse class="st2" cx="479.2" cy="659.5" rx="29.7" ry="6.6"/>
		<ellipse class="st7" cx="479.2" cy="659.5" rx="29.7" ry="6.6"/>
		<path class="st2" d="M471.6,647.9c1,5.1,1,14.2-1.7,14.1c-2.7-0.1-6.4-7.5-7.3-12.6c-1-5.1,0.4-7.7,3.3-8.3
			S470.6,642.7,471.6,647.9z"/>
		<path class="st2" d="M479.3,647.4c-0.5,5.2-3.1,13.9-5.7,13.1c-2.6-0.9-4-9-3.4-14.2c0.5-5.2,2.6-7.3,5.5-7
			C478.6,639.6,479.9,642.2,479.3,647.4z"/>
		<path class="st2" d="M489.6,646.4c-0.6,5.9-3.5,15.9-6.4,14.9c-2.9-1-4.5-10.2-3.9-16.1c0.6-5.9,3-8.3,6.2-8
			C488.7,637.6,490.2,640.5,489.6,646.4z"/>
		<path class="st2" d="M478,651.6c0.9,5.1,0.9,14.2-1.8,14.1c-2.7-0.1-6.3-7.5-7.2-12.7c-0.9-5.1,0.5-7.7,3.3-8.2
			C475.1,644.3,477,646.4,478,651.6z"/>
		<path class="st2" d="M483.6,654.3c-1.5,5-5.6,13.1-8,11.8c-2.4-1.3-2.2-9.6-0.7-14.6c1.5-5,3.9-6.7,6.7-5.9
			S485.1,649.3,483.6,654.3z"/>
		<path class="st2" d="M496.2,651.7c-1.7,5.8-6.5,15.2-9.2,13.7s-2.6-11.1-0.9-16.8c1.7-5.8,4.5-7.7,7.7-6.8
			C497.1,642.7,497.9,645.9,496.2,651.7z"/>
		<path class="st2" d="M457,643.9c0,0,6.2-0.6,7.6,3.8c1.5,4.4-0.3,12,3.5,17.9c0,0-10.3,1.8-16.1-8.8S457,643.9,457,643.9z"/>
		<path class="st2" d="M464,650.3c0,0,4.4-0.4,5.5,2.7c1.1,3.2-0.2,8.7,2.5,12.9c0,0-7.4,1.3-11.6-6.3
			C456.2,652,464,650.3,464,650.3z"/>
		<path class="st2" d="M470.2,654.7c0,0,3.3-0.3,4.1,2.1c0.8,2.4-0.2,6.5,1.9,9.7c0,0-5.6,1-8.7-4.8
			C464.3,655.9,470.2,654.7,470.2,654.7z"/>
		<path class="st2" d="M502.1,647.1c0,0-5.1-0.5-6.4,3.2s0.2,10-2.9,14.9c0,0,8.6,1.5,13.5-7.3C511.2,649,502.1,647.1,502.1,647.1z"
			/>
		<path class="st2" d="M496.6,650.8c0,0-4.2-0.4-5.2,2.6c-1,3,0.2,8.2-2.4,12.2c0,0,7,1.2,11-6C504,652.4,496.6,650.8,496.6,650.8z"
			/>
		<path class="st2" d="M475.1,666c0,0,2.6-0.9,3.4-3.9s1.8-12.4,7.4-11c5.6,1.4,7.8,6.3,6.3,8.7s-4.8,6.8-7.2,6.6
			S475.1,666,475.1,666z"/>
	</g>
</g>
</svg>
